<?xml version="1.0" encoding="utf-8"?>
<!-- Generator: Adobe Illustrator 18.0.0, SVG Export Plug-In . SVG Version: 6.00 Build 0)  -->
<!DOCTYPE svg PUBLIC "-//W3C//DTD SVG 1.1//EN" "http://www.w3.org/Graphics/SVG/1.1/DTD/svg11.dtd">
<svg version="1.1" id="Layer_1" xmlns="http://www.w3.org/2000/svg" xmlns:xlink="http://www.w3.org/1999/xlink" x="0px" y="0px"
	 viewBox="0 0 800 800" enable-background="new 0 0 800 800" xml:space="preserve">
<title>ionicons-v5_logos</title>
<path fill="#61DAFB" d="M641.7,282.4L641.7,282.4c-8-2.7-16-5.3-24.1-7.6c1.3-5.5,2.6-11,3.7-16.5c18.3-88.9,6.3-160.5-34.5-184.1
	c-39.1-22.6-103.1,1-167.8,57.3c-6.4,5.6-12.6,11.3-18.7,17.2c-4.1-3.9-8.2-7.8-12.5-11.5c-67.7-60.3-135.6-85.7-176.4-62
	c-39.1,22.7-50.7,90-34.2,174.3c1.6,8.3,3.5,16.6,5.5,24.9c-9.6,2.7-18.9,5.7-27.8,8.8C75.7,310.8,25,354.3,25,399.4
	C25,446,79.4,492.7,162.1,521c6.7,2.3,13.5,4.4,20.3,6.4c-2.2,8.8-4.2,17.8-5.9,26.8c-15.6,82.8-3.4,148.5,35.5,171.1
	c40.3,23.3,107.8-0.6,173.7-58.3c5.2-4.6,10.4-9.4,15.6-14.5c6.6,6.4,13.4,12.5,20.3,18.5c63.7,55,126.7,77.2,165.6,54.6
	c40.2-23.3,53.3-94,36.3-179.9c-1.3-6.6-2.8-13.3-4.5-20.1c4.8-1.4,9.4-2.9,14-4.4C719,492.7,775,446.6,775,399.4
	C775,354.1,722.7,310.3,641.7,282.4z M440.1,155.7c55.4-48.3,107.1-67.4,130.7-53.7l0,0c25.1,14.5,34.9,73,19.1,149.8
	c-1,5-2.2,10-3.4,15c-33-7.5-66.5-12.8-100.3-15.9c-19.3-27.8-40.5-54.3-63.4-79.3C428.4,166.1,434.2,160.8,440.1,155.7L440.1,155.7
	z M246.5,437.9c6.8,13.1,13.9,26.1,21.3,38.9c7.5,13.1,15.4,25.9,23.5,38.6c-23.2-2.5-46.3-6.2-69.1-11.1
	C228.8,482.8,236.9,460.5,246.5,437.9z M246.5,362.4c-9.4-22.2-17.3-44-23.8-65c21.4-4.8,44.2-8.7,68-11.7
	c-8,12.4-15.6,25.1-23,37.9C260.3,336.3,253.2,349.3,246.5,362.4L246.5,362.4z M263.5,400.1c9.9-20.6,20.5-40.8,31.9-60.6l0,0
	c11.4-19.8,23.5-39.1,36.4-58c22.3-1.7,45.2-2.6,68.3-2.6s46.1,0.9,68.4,2.6c12.7,18.8,24.8,38.1,36.1,57.8
	c11.4,19.7,22.2,39.8,32.3,60.3c-10,20.7-20.8,40.9-32.3,60.8l0,0c-11.4,19.8-23.3,39.2-35.9,58.2c-22.3,1.6-45.3,2.4-68.8,2.4
	s-46-0.7-67.9-2.2c-12.9-18.9-25.2-38.4-36.7-58.3S273.3,420.6,263.5,400.1L263.5,400.1z M532.4,476.6c7.6-13.1,14.8-26.4,21.8-39.8
	l0,0c9.5,21.6,17.9,43.7,25.2,66.1c-23.1,5.2-46.5,9.2-70,12C517.3,502.2,525,489.5,532.4,476.6z M553.9,362.4
	c-6.9-13.2-14.1-26.2-21.6-39.1l0,0c-7.3-12.7-14.9-25.2-22.8-37.6c23.9,3,46.9,7.1,68.4,12C571,319.7,562.9,341.2,553.9,362.4z
	 M400.4,194.5L400.4,194.5c15.6,17,30.3,34.9,44.1,53.4c-29.5-1.4-59.1-1.4-88.7,0C370.4,228.6,385.3,210.7,400.4,194.5z
	 M227.6,102.9c25.1-14.6,80.6,6.3,139.1,58.2c3.7,3.3,7.5,6.8,11.3,10.4c-23,25-44.3,51.4-63.8,79.2c-33.7,3-67.1,8.3-100.1,15.6
	c-1.9-7.7-3.6-15.4-5.2-23.2l0,0C194.7,171,204,116.6,227.6,102.9z M191,496.4c-6.3-1.8-12.4-3.7-18.5-5.8
	c-36.6-12.5-66.8-28.8-87.5-46.6c-18.6-15.9-28-31.8-28-44.7c0-27.4,40.7-62.3,108.6-85.9c8.5-3,17.1-5.7,25.8-8.1
	c10.1,32.4,22.3,64.1,36.6,94.9C213.6,431.4,201.2,463.6,191,496.4z M364.7,642.8c-29.1,25.5-58.3,43.6-84,52.7l0,0
	c-23.1,8.2-41.5,8.4-52.6,2c-23.7-13.7-33.5-66.5-20.1-137.3c1.6-8.3,3.4-16.7,5.5-25c33.3,7.2,67.1,12.1,101.1,14.7
	c19.7,27.9,41.2,54.6,64.4,79.7C374.3,634.1,369.5,638.5,364.7,642.8z M401.3,606.5c-15.2-16.4-30.3-34.6-45.1-54.1
	c14.4,0.6,29,0.8,43.9,0.8c15.3,0,30.4-0.3,45.3-1C431.6,571,416.8,589.2,401.3,606.5L401.3,606.5z M595.8,651.2
	c-4.5,24.1-13.5,40.2-24.6,46.7c-23.6,13.7-74.2-4.1-128.7-51.1c-6.3-5.4-12.5-11.1-18.9-17.2c22.7-25.2,43.7-52,62.9-80
	c34.2-2.9,68.1-8.1,101.6-15.7c1.5,6.2,2.9,12.3,4.1,18.2l0,0C599.7,590,600.8,624.3,595.8,651.2z M623,490.8L623,490.8
	c-4.1,1.4-8.3,2.7-12.6,4c-10.5-32.6-23.2-64.4-38-95.2c14.2-30.4,26.4-61.8,36.5-93.8c7.7,2.2,15.1,4.6,22.3,7.1
	c69.4,23.9,111.8,59.4,111.8,86.6C743,428.4,697.2,466.1,623,490.8z"/>
<path fill="#61DAFB" d="M400,466.5c37.1,0.1,67.3-29.9,67.4-67c0.1-37.1-29.9-67.3-67-67.4c-37.1-0.1-67.3,29.9-67.4,67
	c0,0.1,0,0.1,0,0.2C333,436.3,362.9,466.4,400,466.5C400,466.5,400,466.5,400,466.5z"/>
</svg>
