<?xml version="1.0" encoding="utf-8"?>
<!-- Generator: Adobe Illustrator 18.0.0, SVG Export Plug-In . SVG Version: 6.00 Build 0)  -->
<!DOCTYPE svg PUBLIC "-//W3C//DTD SVG 1.1//EN" "http://www.w3.org/Graphics/SVG/1.1/DTD/svg11.dtd">
<svg version="1.1"
	 id="svg26" xmlns:rdf="http://www.w3.org/1999/02/22-rdf-syntax-ns#" xmlns:cc="http://creativecommons.org/ns#" xmlns:dc="http://purl.org/dc/elements/1.1/" xmlns:svg="http://www.w3.org/2000/svg" xmlns:inkscape="http://www.inkscape.org/namespaces/inkscape" xmlns:sodipodi="http://sodipodi.sourceforge.net/DTD/sodipodi-0.dtd" inkscape:version="0.92.3 (2405546, 2018-03-11)" sodipodi:docname="apple_objectivec-ar21.svg"
	 xmlns="http://www.w3.org/2000/svg" xmlns:xlink="http://www.w3.org/1999/xlink" x="0px" y="0px" viewBox="-93 18 306.1 303.1"
	 enable-background="new -93 18 306.1 303.1" xml:space="preserve">
<g>
	
		<sodipodi:namedview  inkscape:cy="23.287362" showgrid="false" inkscape:cx="55.090043" inkscape:zoom="8" guidetolerance="10" gridtolerance="10" borderopacity="1" pagecolor="#ffffff" objecttolerance="10" bordercolor="#666666" id="namedview28" inkscape:current-layer="svg26" inkscape:window-maximized="1" inkscape:window-y="-9" inkscape:window-x="-9" inkscape:window-height="1001" inkscape:window-width="1920" inkscape:pageshadow="2" inkscape:pageopacity="0">
		</sodipodi:namedview>
	<title  id="title6">Simpler &amp;amp; easier</title>
	<g id="Layer_2" transform="matrix(0.65762897,0,0,0.65762897,34.875476,4.8752901)">
		<g id="Layer_1-2">
			<path id="path8" inkscape:connector-curvature="0" fill="#F1592A" d="M37.6,480.8c-123.8,0-228.8-104.6-229.8-229.2
				c-0.4-60.7,23.5-119.1,66.3-162.1C-82.7,45.3-23.6,20.3,38.2,20l0,0C98.8,19.9,157,44.1,199.8,87.1
				c43.5,42.4,68.3,100.4,68.8,161.2c0.6,127.4-101.8,231.3-229.2,232.6H37.6z M38.3,32c-58.6,0.3-114.5,24.1-155.4,66
				c-40.7,40.7-63.4,95.9-63,153.4c0.9,118.1,100.4,217.1,217.7,217.1h1.6c120.8-1.1,218-99.5,217.5-220.3
				c-0.5-57.5-24-112.5-65.3-152.6C150.9,54.8,95.8,31.9,38.3,32z"/>
			<path id="path10" inkscape:connector-curvature="0" fill="#F1592A" d="M-140.5,317.8V183.2h32.7v12.1h-17.4v110.7h17.4V318
				L-140.5,317.8z"/>
			<path id="path12" inkscape:connector-curvature="0" fill="#F1592A" d="M-29.4,249.1c0,24.5-14.9,38.5-35.1,38.5
				s-33.7-15.7-33.7-37.3c0-22.5,14.1-38.4,34.7-38.4S-29.4,228.6-29.4,249.1z M-84,250.2c0,14.9,7.5,26.7,20.3,26.7
				c12.8,0,20.2-12.1,20.2-27.3c0-13.8-6.8-26.8-20.2-26.8c-13.4,0-20.4,12.6-20.4,27.7L-84,250.2z"/>
			<path id="path14" inkscape:connector-curvature="0" fill="#F1592A" d="M-18,214.6c6.4-1.1,12.9-1.7,19.4-1.6
				c7.3-0.7,14.7,0.9,21,4.6c4.8,2.8,7.7,8.1,7.6,13.7c-0.2,7.3-5,13.7-12.1,15.9l0,0c8.6,1.7,14.8,9.3,14.8,18.1
				c0.1,5.8-2.5,11.4-7.1,15.1c-5.2,4.6-13.8,6.8-27.1,6.8c-5.5,0-11-0.3-16.4-1L-18,214.6z M-4.8,243.5h6.8
				c9.2,0,14.4-4.3,14.4-10.6s-5.2-10-13.7-10c-2.5-0.1-5.1,0.1-7.6,0.5L-4.8,243.5z M-4.8,277.1c2.3,0.2,4.7,0.3,7.1,0.3
				c8.6,0,16.2-3.3,16.2-12.1c0-8.8-7.4-12.1-16.6-12.1h-6.6V277.1z"/>
			<path id="path16" inkscape:connector-curvature="0" fill="#F1592A" d="M59,213.6h13.3v47.6c0,20.2-9.8,27-24.1,27
				c-3.8,0-7.6-0.7-11.3-1.9l1.6-10.7c2.7,0.8,5.5,1.3,8.3,1.3c7.6,0,12.1-3.5,12.1-16.2L59,213.6z"/>
			<path id="path18" inkscape:connector-curvature="0" fill="#F1592A" d="M110.3,253.2v9.2H82.6v-9.2H110.3z"/>
			<path id="path20" inkscape:connector-curvature="0" fill="#F1592A" d="M175.1,284.6c-6,2.4-12.4,3.5-18.9,3.3
				c-23.2,0-37.3-14.5-37.3-36.8c-1.1-20.3,14.5-37.6,34.8-38.7c1.4-0.1,2.9-0.1,4.3,0c6.2-0.3,12.4,0.9,18.1,3.3l-3,10.6
				c-4.5-1.9-9.4-2.9-14.4-2.8c-14.9,0-25.6,9.3-25.6,27c0,16,9.5,26.4,25.5,26.4c5,0.1,9.9-0.9,14.5-2.7L175.1,284.6z"/>
			<path id="path22" inkscape:connector-curvature="0" fill="#F1592A" d="M216.9,182.8v135h-32.7v-12.1h17.4V194.9h-17.4v-12.1
				H216.9z"/>
		</g>
	</g>
</g>
</svg>
