<?xml version="1.0" encoding="utf-8"?>
<!-- Generator: Adobe Illustrator 18.0.0, SVG Export Plug-In . SVG Version: 6.00 Build 0)  -->
<!DOCTYPE svg PUBLIC "-//W3C//DTD SVG 1.1//EN" "http://www.w3.org/Graphics/SVG/1.1/DTD/svg11.dtd">
<svg version="1.1" id="Camada_1" xmlns="http://www.w3.org/2000/svg" xmlns:xlink="http://www.w3.org/1999/xlink" x="0px" y="0px"
	 viewBox="0 0 841.9 595.3" enable-background="new 0 0 841.9 595.3" xml:space="preserve">
<path fill="#00758F" d="M343.3,389.7c-13.2,72-30.7,124.3-52.3,156.8c-16.9,25.1-35.4,37.7-55.5,37.7c-5.4,0-12-1.6-19.8-4.9v-17.3
	c3.8,0.6,8.3,0.9,13.5,0.9c9.4,0,17-2.6,22.7-7.8c6.9-6.3,10.4-13.4,10.4-21.3c0-5.4-2.7-16.4-8.1-33.1l-35.6-111h31.9l25.6,83
	c5.8,18.9,8.1,32,7.2,39.5c14-37.5,23.8-78.3,29.3-122.5L343.3,389.7 M202.4,533.3h-32.5c-1.2-55-4.3-106.7-9.5-155.1h-0.3
	l-49.5,155.1H86L36.8,378.2h-0.3c-3.6,46.5-5.9,98.2-6.9,155.1H0c1.9-69.2,6.7-134.1,14.4-194.6h40.3l46.9,143h0.3l47.1-143h38.5
	C195.9,409.6,200.9,474.5,202.4,533.3"/>
<path fill="#F29111" d="M775.8,533.3h-92.3V338.7h31.1v170.6h61.2V533.3 M543.7,494.3c-7.9-12.7-11.8-33-11.8-61.1
	c0-49,14.9-73.5,44.6-73.5c15.5,0,26.9,5.9,34.2,17.6c7.9,12.7,11.8,32.9,11.8,60.6c0,49.4-14.9,74.1-44.6,74.1
	C562.4,511.9,550.9,506.1,543.7,494.3 M659.3,538l-35.7-17.7c3.2-2.6,6.2-5.4,8.9-8.7c15.2-17.8,22.7-44.3,22.7-79.3
	c0-64.4-25.2-96.6-75.6-96.6c-24.7,0-44,8.2-57.8,24.5c-15.2,17.9-22.7,44.2-22.7,79c0,34.2,6.7,59.3,20.1,75.2
	c12.2,14.4,30.7,21.6,55.5,21.6c9.2,0,17.7-1.2,25.4-3.4l46.4,27.1L659.3,538 M485.6,479.3c0,16.5-6,30.1-18.1,40.7
	c-12.1,10.6-28.3,15.9-48.6,15.9c-19,0-37.4-6.1-55.2-18.2l8.3-16.7c15.4,7.7,29.2,11.5,41.7,11.5c11.7,0,20.8-2.6,27.4-7.8
	c6.6-5.2,10.6-12.4,10.6-21.6c0-11.6-8-21.4-22.8-29.7c-13.6-7.5-40.8-23.1-40.8-23.1c-14.7-10.8-22.1-22.3-22.1-41.4
	c0-15.8,5.5-28.5,16.5-38.2c11-9.7,25.3-14.6,42.7-14.6c18,0,34.4,4.8,49.2,14.4l-7.5,16.7c-12.6-5.4-25.1-8.1-37.4-8.1
	c-10,0-17.7,2.4-23,7.2c-5.4,4.8-8.7,10.9-8.7,18.4c0,11.5,8.2,21.5,23.4,30c13.8,7.5,41.7,23.4,41.7,23.4
	C478.1,449,485.6,460.4,485.6,479.3 M797.9,533.3h5.1v-19.8h6.7v-4h-18.9v4h7L797.9,533.3z M837,533.3h4.9v-23.9h-7.3l-5.9,16.2
	l-6.5-16.2h-7v23.9h4.6v-18.2h0.3l6.8,18.2h3.5l6.8-18.2L837,533.3"/>
<path fill="#00758F" d="M517.6,11c-8.2-0.1-15.4,3-19.1,12.1c-6.3,15.3,9.4,30.3,14.8,38.1c4,5.4,9.1,11.5,12,17.6
	c1.7,4,2.1,8.3,3.8,12.5c3.8,10.4,7.3,21.9,12.2,31.5c2.6,4.9,5.4,10.1,8.7,14.6c1.9,2.6,5.2,3.8,5.9,8c-3.3,4.7-3.5,11.8-5.4,17.7
	c-8.4,26.6-5.2,59.5,6.8,79c3.7,5.9,12.7,18.8,24.6,13.9c10.6-4.2,8.2-17.6,11.3-29.4c0.7-2.8,0.2-4.7,1.6-6.6v0.5
	c3.3,6.6,6.6,12.9,9.6,19.5c7.3,11.5,19.9,23.5,30.5,31.5c5.6,4.2,10.1,11.5,17.1,14.1v-0.7h-0.4c-1.4-2.1-3.5-3.1-5.4-4.7
	c-4.2-4.2-8.9-9.4-12.2-14.1c-9.9-13.2-18.5-27.8-26.3-42.8c-3.8-7.3-7-15.3-10.1-22.6c-1.4-2.8-1.4-7-3.8-8.4
	c-3.5,5.2-8.7,9.6-11.3,16c-4.5,10.1-4.9,22.6-6.6,35.5c-0.9,0.3-0.4,0-0.9,0.5c-7.5-1.9-10.1-9.6-12.9-16.2
	c-7-16.7-8.2-43.5-2.1-62.8c1.6-4.9,8.7-20.4,5.9-25.1c-1.4-4.5-6.1-7-8.7-10.6c-3-4.5-6.3-10.1-8.4-15
	c-5.6-13.2-8.5-27.8-14.5-40.9c-2.8-6.1-7.7-12.5-11.7-18.1c-4.5-6.3-9.4-10.8-12.9-18.3c-1.2-2.6-2.8-6.8-0.9-9.7
	c0.4-1.9,1.4-2.6,3.3-3.1c3-2.6,11.7,0.7,14.8,2.1c8.7,3.5,15.9,6.8,23.2,11.8c3.3,2.4,6.8,6.8,11,8h4.9c7.5,1.6,15.9,0.4,23,2.6
	c12.4,4,23.7,9.9,33.8,16.2c30.7,19.5,56,47.3,73.1,80.4c2.8,5.4,4,10.3,6.6,16c4.9,11.5,11,23.3,15.9,34.6
	c4.9,11.1,9.6,22.3,16.7,31.5c3.5,4.9,17.6,7.5,23.9,10.1c4.7,2.1,12,4,16.2,6.6c8,4.9,15.9,10.6,23.4,16
	c3.7,2.8,15.5,8.7,16.2,13.4c-18.8-0.5-33.3,1.4-45.5,6.6c-3.5,1.4-9.1,1.4-9.6,5.9c1.9,1.9,2.1,4.9,3.8,7.5
	c2.8,4.7,7.7,11,12.2,14.3c4.9,3.8,9.9,7.5,15,10.8c9.1,5.7,19.4,9,28.4,14.6c5.2,3.3,10.3,7.5,15.5,11.1c2.6,1.9,4.2,4.9,7.5,6.1
	v-0.7c-1.7-2.1-2.1-5.2-3.7-7.5c-2.3-2.3-4.7-4.5-7-6.8c-6.8-9.2-15.3-17.1-24.4-23.7c-7.5-5.2-23.9-12.2-27-20.9l-0.5-0.5
	c5.2-0.5,11.3-2.4,16.2-3.8c8-2.1,15.2-1.6,23.4-3.7c3.8-1,7.5-2.1,11.3-3.3v-2.1c-4.2-4.2-7.3-9.9-11.7-13.9
	c-12-10.4-25.1-20.4-38.7-28.9c-7.3-4.7-16.7-7.7-24.4-11.8c-2.8-1.4-7.5-2.1-9.1-4.5c-4.2-5.2-6.6-12-9.6-18.1
	c-6.8-12.9-13.4-27.2-19.2-40.9c-4.2-9.2-6.8-18.3-12-26.8c-24.2-40-50.4-64.2-90.8-87.9c-8.7-4.9-19-7-30-9.7
	c-5.9-0.3-11.7-0.7-17.6-0.9c-3.8-1.7-7.5-6.1-10.8-8.3C547.9,20.3,531.3,11.2,517.6,11L517.6,11z M575.5,69.1c-4,0-6.8,0.5-9.6,1.2
	v0.5h0.4c1.9,3.8,5.2,6.4,7.5,9.7c1.9,3.8,3.5,7.5,5.4,11.3c0.2-0.2,0.4-0.5,0.4-0.5c3.3-2.3,4.9-6.1,4.9-11.8
	c-1.4-1.7-1.6-3.3-2.8-4.9C580.4,72.2,577.4,71,575.5,69.1z"/>
</svg>
