<?xml version="1.0" encoding="utf-8"?>
<!-- Generator: Adobe Illustrator 18.0.0, SVG Export Plug-In . SVG Version: 6.00 Build 0)  -->
<!DOCTYPE svg PUBLIC "-//W3C//DTD SVG 1.1//EN" "http://www.w3.org/Graphics/SVG/1.1/DTD/svg11.dtd">
<svg version="1.1" id="Layer_1" xmlns="http://www.w3.org/2000/svg" xmlns:xlink="http://www.w3.org/1999/xlink" x="0px" y="0px"
	 viewBox="0 0 800 800" enable-background="new 0 0 800 800" xml:space="preserve">
<title>ionicons-v5_logos</title>
<path fill="#8CC84B" d="M671.5,203.2L428.6,57.6c-17.7-10.1-39.5-10.1-57.3,0L128.5,203.2c-17.8,10.9-28.6,30.3-28.5,51.2v290.9
	c-0.1,20.9,10.7,40.3,28.5,51.3l63.7,38l0.4,0.2c32.2,16.5,44.5,16.5,58.7,16.5c50.2,0,81.4-32.5,81.4-84.8v-282
	c0.1-7.3-5.8-13.3-13.2-13.4h-35c-7.3,0.1-13.2,6.1-13.2,13.4v282c0.3,8.2-3.8,16-10.7,20.4c-9.2,5.6-22.6,4.4-37.7-3.4l-61-36.7
	c-0.5-0.3-0.8-0.9-0.8-1.4V258.5c0-0.7,0.4-1.3,0.9-1.7l237.2-145.3c0.4-0.2,0.8-0.2,1.1,0l237.4,145.3c0.5,0.4,0.9,1,0.9,1.7v286.7
	c0,0.6-0.2,1.2-0.7,1.6L400.5,688.5c-0.4,0.1-0.8,0.1-1.3,0l-60.7-36c-3.7-2.4-8.3-2.6-12.2-0.6l-0.5,0.3
	c-16.8,9.9-21.3,12.5-36.8,18.2c-2.5,0.9-8.5,3.1-9,9c-0.5,5.9,5.1,10.1,10.2,13l81.1,49.8c8.6,5.2,18.5,7.9,28.6,7.9h0.9l0,0
	c9.8-0.2,19.4-2.9,27.9-7.9l242.9-145.5c17.8-11,28.6-30.4,28.5-51.3V254.4C700.1,233.6,689.3,214.1,671.5,203.2z"/>
<path fill="#8CC84B" d="M481.1,497c-58.3,0-70.7-16.3-74.4-42.6c-0.9-6.5-6.3-11.3-12.8-11.4h-30.9c-7.3,0.2-13,6.1-12.9,13.4
	c0,22.8,8,97.1,131.1,97.1l0,0c38.1,0,69.8-8.9,91.6-25.8c21.8-16.9,33.5-41.4,33.5-70.6c0-58.7-38.3-74.7-113.7-85.2
	c-76.6-10.7-76.6-16.1-76.6-28c0-8.5,0-28.6,55.4-28.6c39.4,0,60.5,5,67.3,31.3c1.2,6,6.5,10.3,12.6,10.4h31c3.7,0,7.2-1.7,9.6-4.5
	c2.4-2.8,3.6-6.4,3.3-10.1c-4-55.5-44.6-83.7-123.8-83.7c-72,0-114.9,32.4-114.9,86.7c0,59.5,44.5,76.4,111.4,83.3
	c78.1,8.1,78.1,19.9,78.1,30.3C546,475.3,539.3,497,481.1,497z"/>
</svg>
